<svg width="12" height="11" viewBox="0 0 12 11" fill="none" xmlns="http://www.w3.org/2000/svg">
<path fill-rule="evenodd" clip-rule="evenodd" d="M2.33387 9.6256C2.4512 9.6256 2.56854 9.58069 2.65791 9.49131L6.32458 5.82464C6.50379 5.64544 6.50379 5.35577 6.32458 5.17656L2.65791 1.50989C2.4787 1.33069 2.18904 1.33069 2.00983 1.50989C1.83062 1.6891 1.83062 1.97877 2.00983 2.15798L5.35245 5.5006L2.00983 8.84323C1.83062 9.02244 1.83062 9.3121 2.00983 9.49131C2.0992 9.58069 2.21654 9.6256 2.33387 9.6256Z" fill="#B1B8C2"/>
<path fill-rule="evenodd" clip-rule="evenodd" d="M5.99989 9.6256C6.11722 9.6256 6.23455 9.58069 6.32393 9.49131L9.99059 5.82464C10.1698 5.64544 10.1698 5.35577 9.99059 5.17656L6.32393 1.50989C6.14472 1.33069 5.85505 1.33069 5.67584 1.50989C5.49664 1.6891 5.49664 1.97877 5.67584 2.15798L9.01847 5.5006L5.67584 8.84323C5.49664 9.02244 5.49664 9.3121 5.67584 9.49131C5.76522 9.58069 5.88255 9.6256 5.99989 9.6256Z" fill="#B1B8C2"/>
</svg>
